<svg width="94" height="86" viewBox="0 0 94 86" fill="none" xmlns="http://www.w3.org/2000/svg">
<g filter="url(#filter0_d_537_19175)">
<path d="M4 17.0204C4 11.4975 8.47715 7.02039 14 7.02039H72.8571C78.38 7.02039 82.8571 11.4975 82.8571 17.0204V68.9796C82.8571 74.5024 78.38 78.9796 72.8571 78.9796H14C8.47715 78.9796 4 74.5024 4 68.9796V17.0204Z" fill="#E6E6E6"/>
<path d="M4.5 17.0204C4.5 11.7737 8.75329 7.52039 14 7.52039H72.8571C78.1039 7.52039 82.3571 11.7737 82.3571 17.0204V68.9796C82.3571 74.2263 78.1039 78.4796 72.8571 78.4796H14C8.75329 78.4796 4.5 74.2263 4.5 68.9796V17.0204Z" stroke="#0C29B0"/>
</g>
<path d="M4.5 17.0204C4.5 11.7737 8.7533 7.52039 14 7.52039H72.8571C78.1039 7.52039 82.3571 11.7737 82.3571 17.0204V22.3163H4.5V17.0204Z" fill="#0C29B0" stroke="#0C29B0"/>
<rect x="14.7852" y="32.0919" width="8.42857" height="8.65306" fill="#0C29B0" stroke="#0C29B0"/>
<rect x="62.7852" y="32.0919" width="8.42857" height="8.65306" fill="#0C29B0" stroke="#0C29B0"/>
<rect x="50.7852" y="32.0919" width="8.42857" height="8.65306" fill="#0C29B0" stroke="#0C29B0"/>
<rect x="38.7852" y="32.0919" width="8.42857" height="8.65306" fill="#0C29B0" stroke="#0C29B0"/>
<rect x="26.7852" y="32.0919" width="8.42857" height="8.65306" fill="#0C29B0" stroke="#0C29B0"/>
<rect x="14.7852" y="45.2551" width="8.42857" height="8.65306" fill="#0C29B0" stroke="#0C29B0"/>
<rect x="62.7852" y="45.2551" width="8.42857" height="8.65306" fill="#0C29B0" stroke="#0C29B0"/>
<rect x="50.7852" y="45.2551" width="8.42857" height="8.65306" fill="#0C29B0" stroke="#0C29B0"/>
<rect x="38.7852" y="45.2551" width="8.42857" height="8.65306" fill="#0C29B0" stroke="#0C29B0"/>
<rect x="26.7852" y="45.2551" width="8.42857" height="8.65306" fill="#0C29B0" stroke="#0C29B0"/>
<rect x="14.7852" y="58.4183" width="8.42857" height="8.65306" fill="#0C29B0" stroke="#0C29B0"/>
<rect x="62.7852" y="58.4183" width="8.42857" height="8.65306" fill="#0C29B0" stroke="#0C29B0"/>
<rect x="50.7852" y="58.4183" width="8.42857" height="8.65306" fill="#0C29B0" stroke="#0C29B0"/>
<rect x="38.7852" y="58.4183" width="8.42857" height="8.65306" fill="#0C29B0" stroke="#0C29B0"/>
<rect x="26.7852" y="58.4183" width="8.42857" height="8.65306" fill="#0C29B0" stroke="#0C29B0"/>
<rect x="21.6431" y="0.5" width="4.14286" height="12.1633" rx="2.07143" fill="url(#paint0_linear_537_19175)" stroke="#0C29B0"/>
<rect x="60.2144" y="0.5" width="4.14286" height="12.1633" rx="2.07143" fill="url(#paint1_linear_537_19175)" stroke="#0C29B0"/>
<path d="M93.5001 67.5714C93.5001 77.4519 85.1112 85.5 74.7144 85.5C64.3177 85.5 55.9287 77.4519 55.9287 67.5714C55.9287 57.6909 64.3177 49.6428 74.7144 49.6428C85.1112 49.6428 93.5001 57.6909 93.5001 67.5714Z" fill="#0C29B0" stroke="#0C29B0"/>
<path d="M91.7859 67.5714C91.7859 76.4794 84.1678 83.7449 74.7145 83.7449C65.2612 83.7449 57.6431 76.4794 57.6431 67.5714C57.6431 58.6634 65.2612 51.3979 74.7145 51.3979C84.1678 51.3979 91.7859 58.6634 91.7859 67.5714Z" fill="#0C29B0" stroke="#0C29B0"/>
<path d="M89.2141 67.5715C89.2141 75.0325 82.9318 81.1123 75.1427 81.1123C67.3536 81.1123 61.0713 75.0325 61.0713 67.5715C61.0713 60.1104 67.3536 54.0306 75.1427 54.0306C82.9318 54.0306 89.2141 60.1104 89.2141 67.5715Z" fill="#E6E6E6" stroke="#0C29B0"/>
<path d="M76.3578 67.5714C76.3578 68.2758 75.8031 68.8265 75.1435 68.8265C74.4839 68.8265 73.9292 68.2758 73.9292 67.5714C73.9292 66.8671 74.4839 66.3163 75.1435 66.3163C75.8031 66.3163 76.3578 66.8671 76.3578 67.5714Z" fill="#0C29B0" stroke="#0C29B0"/>
<path d="M75.4589 57.5983C75.2821 57.4236 74.9972 57.4253 74.8225 57.6021L71.9752 60.483C71.8004 60.6598 71.8021 60.9447 71.9788 61.1194C72.1555 61.2941 72.4405 61.2924 72.6152 61.1156L75.1462 58.5548L77.7063 61.085C77.883 61.2597 78.1679 61.258 78.3426 61.0812C78.5174 60.9044 78.5157 60.6195 78.339 60.4448L75.4589 57.5983ZM75.6477 67.5685L75.5925 57.9157L74.6925 57.9211L74.7478 67.5739L75.6477 67.5685Z" fill="#0C29B0"/>
<path d="M83.2122 67.9236C83.4067 67.7276 83.4055 67.411 83.2095 67.2165L80.0158 64.0468C79.8199 63.8523 79.5033 63.8536 79.3087 64.0496C79.1142 64.2456 79.1154 64.5622 79.3113 64.7567L82.1502 67.5742L79.3322 70.4135C79.1377 70.6095 79.1389 70.9261 79.3348 71.1206C79.5308 71.3151 79.8474 71.3139 80.0419 71.1179L83.2122 67.9236ZM75.1449 68.1013L82.8591 68.0714L82.8554 67.0714L75.1412 67.1013L75.1449 68.1013Z" fill="#0C29B0"/>
<defs>
<filter id="filter0_d_537_19175" x="0" y="4.02039" width="86.8572" height="79.9592" filterUnits="userSpaceOnUse" color-interpolation-filters="sRGB">
<feFlood flood-opacity="0" result="BackgroundImageFix"/>
<feColorMatrix in="SourceAlpha" type="matrix" values="0 0 0 0 0 0 0 0 0 0 0 0 0 0 0 0 0 0 127 0" result="hardAlpha"/>
<feOffset dy="1"/>
<feGaussianBlur stdDeviation="2"/>
<feComposite in2="hardAlpha" operator="out"/>
<feColorMatrix type="matrix" values="0 0 0 0 0 0 0 0 0 0 0 0 0 0 0 0 0 0 0.25 0"/>
<feBlend mode="normal" in2="BackgroundImageFix" result="effect1_dropShadow_537_19175"/>
<feBlend mode="normal" in="SourceGraphic" in2="effect1_dropShadow_537_19175" result="shape"/>
</filter>
<linearGradient id="paint0_linear_537_19175" x1="23.7145" y1="0" x2="23.7145" y2="13.1633" gradientUnits="userSpaceOnUse">
<stop stop-color="#888888"/>
<stop offset="1" stop-color="white"/>
</linearGradient>
<linearGradient id="paint1_linear_537_19175" x1="62.2858" y1="0" x2="62.2858" y2="13.1633" gradientUnits="userSpaceOnUse">
<stop stop-color="#888888"/>
<stop offset="1" stop-color="white"/>
</linearGradient>
</defs>
</svg>
