<svg width="100" height="96" viewBox="0 0 100 96" fill="none" xmlns="http://www.w3.org/2000/svg">
<g filter="url(#filter0_d_537_19174)">
<path d="M39.806 21.835L4.18097 54.2858C1.18096 59.2957 4.59763 63.9641 6.68097 65.6721L30.431 86.7367C36.431 90.8357 41.681 88.4446 43.556 86.7367L77.9311 55.4245C80.4311 53.1472 81.4727 48.0234 81.6811 45.7461V25.8202C81.6811 20.8102 76.2644 18.4191 73.5561 17.8498H52.306C47.806 17.3943 42.0977 20.3168 39.806 21.835Z" fill="#0C29B0"/>
<path d="M39.806 21.835L4.18097 54.2858C1.18096 59.2957 4.59763 63.9641 6.68097 65.6721L30.431 86.7367C36.431 90.8357 41.681 88.4446 43.556 86.7367L77.9311 55.4245C80.4311 53.1472 81.4727 48.0234 81.6811 45.7461V25.8202C81.6811 20.8102 76.2644 18.4191 73.5561 17.8498H52.306C47.806 17.3943 42.0977 20.3168 39.806 21.835Z" stroke="#0C29B0"/>
</g>
<path d="M73.75 32.035C73.75 35.8034 70.3811 38.9361 66.125 38.9361C61.8689 38.9361 58.5 35.8034 58.5 32.035C58.5 28.2665 61.8689 25.1339 66.125 25.1339C70.3811 25.1339 73.75 28.2665 73.75 32.035Z" fill="white" stroke="#0C29B0"/>
<g filter="url(#filter1_d_537_19174)">
<path d="M69.25 35.2786C69.25 19.1918 72.6028 -8.71968 86.0141 8.32807C99.4254 25.3758 90.4845 34.6518 84.3377 37.1588" stroke="#0C29B0" stroke-width="2"/>
</g>
<path d="M55.327 40.323L51.4637 44.0403L49.4669 42.3184L53.3302 38.6011L55.327 40.323ZM34.4028 60.0194L31.0209 63.2736L29.0373 61.5631L32.4193 58.3089L34.4028 60.0194ZM41.0679 58.4638C41.5746 57.9763 41.9108 57.4342 42.0765 56.8376C42.2422 56.2409 42.2188 55.5429 42.0064 54.7434C41.7939 53.9439 41.3697 53.008 40.7339 51.9359C39.945 50.6547 39.3787 49.4346 39.0351 48.2755C38.7004 47.1241 38.6616 46.0198 38.9188 44.9628C39.1848 43.9134 39.816 42.9093 40.8125 41.9505C41.8511 40.9511 42.9814 40.2926 44.2033 39.9751C45.4252 39.6575 46.6693 39.6749 47.9355 40.0272C49.2017 40.3795 50.4161 41.0569 51.5787 42.0595C52.4839 42.8401 53.1606 43.6624 53.6088 44.5266C54.0655 45.3825 54.2845 46.2648 54.266 47.1732C54.2563 48.0893 54.0128 49.0117 53.5355 49.9406C53.0671 50.8771 52.3516 51.8085 51.3889 52.7347L48.9394 50.6225C49.5052 50.0781 49.9536 49.5172 50.2844 48.9397C50.6153 48.3623 50.8119 47.7845 50.8741 47.2065C50.9448 46.6203 50.8689 46.0619 50.6464 45.5311C50.4324 44.9922 50.0592 44.4931 49.5267 44.0339C48.7812 43.3911 48.0419 42.977 47.3089 42.7918C46.5848 42.6141 45.8836 42.6412 45.2053 42.8728C44.5355 43.0964 43.9092 43.4885 43.3265 44.0491C42.7861 44.5691 42.4286 45.1236 42.254 45.7126C42.0794 46.3016 42.1026 46.9918 42.3235 47.7832C42.5617 48.5741 43.0127 49.5407 43.6765 50.6832C44.4751 52.0036 45.0373 53.2356 45.3632 54.3794C45.6975 55.5151 45.7312 56.5918 45.4643 57.6097C45.2059 58.6194 44.5742 59.6077 43.5693 60.5746C42.48 61.6228 41.3022 62.2865 40.0359 62.5658C38.778 62.837 37.489 62.7576 36.1687 62.3278C34.8484 61.8981 33.5626 61.1436 32.3112 60.0646C31.5569 59.4141 30.9085 58.6778 30.3661 57.8557C29.8237 57.0336 29.4748 56.155 29.3193 55.2197C29.1722 54.2763 29.2843 53.3022 29.6555 52.2973C30.0352 51.2843 30.757 50.2659 31.821 49.2421L34.2971 51.3772C33.5793 52.0679 33.0905 52.7325 32.8306 53.3712C32.588 54.0095 32.5093 54.6195 32.5945 55.2014C32.6882 55.7752 32.8933 56.3065 33.21 56.7952C33.5439 57.2835 33.9283 57.7151 34.3632 58.0901C35.1619 58.7789 35.9546 59.2467 36.7413 59.4937C37.5453 59.7402 38.3175 59.7744 39.058 59.5963C39.7984 59.4182 40.4684 59.0407 41.0679 58.4638Z" fill="#E6E6E6"/>
<path d="M55.327 40.323L56.0843 40.976L56.8049 40.2827L56.0476 39.6296L55.327 40.323ZM51.4637 44.0403L50.7431 44.7337L51.5004 45.3867L52.221 44.6934L51.4637 44.0403ZM49.4669 42.3184L48.7096 41.6654L47.989 42.3587L48.7463 43.0118L49.4669 42.3184ZM53.3302 38.6011L54.0508 37.9077L53.2935 37.2547L52.5729 37.948L53.3302 38.6011ZM34.4028 60.0194L35.1602 60.6724L35.8807 59.979L35.1234 59.326L34.4028 60.0194ZM31.0209 63.2736L30.3003 63.9669L31.0576 64.62L31.7782 63.9266L31.0209 63.2736ZM29.0373 61.5631L28.28 60.9101L27.5594 61.6034L28.3167 62.2565L29.0373 61.5631ZM32.4193 58.3089L33.1399 57.6156L32.3826 56.9625L31.662 57.6559L32.4193 58.3089ZM40.7339 51.9359L41.6541 51.4798L41.6502 51.4732L41.6462 51.4666L40.7339 51.9359ZM39.0351 48.2755L38.0245 48.5238L38.0258 48.5282L39.0351 48.2755ZM38.9188 44.9628L37.9003 44.7529L37.8982 44.7612L38.9188 44.9628ZM53.6088 44.5266L52.6632 44.9371L52.6682 44.9465L53.6088 44.5266ZM54.266 47.1732L53.2207 47.1603L53.2207 47.1689L54.266 47.1732ZM53.5355 49.9406L52.5891 49.5403L52.5847 49.5492L53.5355 49.9406ZM51.3889 52.7347L50.6683 53.4281L51.4256 54.0812L52.1462 53.3878L51.3889 52.7347ZM48.9394 50.6225L48.1821 49.9695L47.4615 50.6629L48.2189 51.3159L48.9394 50.6225ZM50.8741 47.2065L49.835 47.1072L49.8338 47.1183L50.8741 47.2065ZM50.6464 45.5311L49.6632 45.8592L49.6664 45.867L49.6696 45.8748L50.6464 45.5311ZM47.3089 42.7918L47.5931 41.8738L47.5855 41.8719L47.3089 42.7918ZM45.2053 42.8728L45.5604 43.767L45.5679 43.7645L45.2053 42.8728ZM42.3235 47.7832L41.3103 48.0224L41.3127 48.031L41.3153 48.0396L42.3235 47.7832ZM43.6765 50.6832L42.7521 51.1322L42.7561 51.1392L42.7604 51.1462L43.6765 50.6832ZM45.3632 54.3794L44.3512 54.6231L44.3534 54.6305L45.3632 54.3794ZM45.4643 57.6097L44.4476 57.3928L44.4463 57.3978L45.4643 57.6097ZM40.0359 62.5658L40.2717 63.4926L40.2769 63.4915L40.0359 62.5658ZM29.3193 55.2197L28.2842 55.3584L28.2857 55.3671L29.3193 55.2197ZM29.6555 52.2973L28.6664 51.9936L28.665 51.9976L29.6555 52.2973ZM31.821 49.2421L32.5416 48.5487L31.7843 47.8956L31.0637 48.589L31.821 49.2421ZM34.2971 51.3772L35.0544 52.0303L35.775 51.3369L35.0177 50.6839L34.2971 51.3772ZM32.8306 53.3712L31.8507 53.0441L31.8467 53.0538L31.843 53.0636L32.8306 53.3712ZM32.5945 55.2014L31.5583 55.3321L31.5594 55.3392L31.5605 55.3462L32.5945 55.2014ZM33.21 56.7952L32.3091 57.2825L32.3154 57.2923L32.322 57.3019L33.21 56.7952ZM36.7413 59.4937L36.3963 60.3944L36.4034 60.3966L36.7413 59.4937ZM54.5697 39.6699L50.7064 43.3873L52.221 44.6934L56.0843 40.976L54.5697 39.6699ZM52.1843 43.3469L50.1875 41.625L48.7463 43.0118L50.7431 44.7337L52.1843 43.3469ZM50.2242 42.9715L54.0875 39.2541L52.5729 37.948L48.7096 41.6654L50.2242 42.9715ZM52.6096 39.2944L54.6064 41.0163L56.0476 39.6296L54.0508 37.9077L52.6096 39.2944ZM33.6455 59.3663L30.2635 62.6205L31.7782 63.9266L35.1602 60.6724L33.6455 59.3663ZM31.7414 62.5802L29.7579 60.8698L28.3167 62.2565L30.3003 63.9669L31.7414 62.5802ZM29.7947 62.2162L33.1766 58.962L31.662 57.6559L28.28 60.9101L29.7947 62.2162ZM31.6987 59.0023L33.6822 60.7127L35.1234 59.326L33.1399 57.6156L31.6987 59.0023ZM41.8252 59.1169C42.4443 58.5212 42.8761 57.8362 43.0898 57.0668L41.0632 56.6083C40.9454 57.0322 40.7049 57.4314 40.3106 57.8108L41.8252 59.1169ZM43.0898 57.0668C43.309 56.2775 43.2618 55.4157 43.0224 54.5148L40.9903 54.972C41.1758 55.67 41.1754 56.2043 41.0632 56.6083L43.0898 57.0668ZM43.0224 54.5148C42.7814 53.6078 42.3141 52.5927 41.6541 51.4798L39.8136 52.392C40.4253 53.4234 40.8064 54.28 40.9903 54.972L43.0224 54.5148ZM41.6462 51.4666C40.8903 50.239 40.3613 49.0916 40.0444 48.0228L38.0258 48.5282C38.3962 49.7776 38.9997 51.0704 39.8216 52.4051L41.6462 51.4666ZM40.0457 48.0273C39.7493 47.0074 39.7219 46.0579 39.9393 45.1644L37.8982 44.7612C37.6013 45.9817 37.6516 47.2408 38.0245 48.5238L40.0457 48.0273ZM39.9373 45.1727C40.1527 44.323 40.6734 43.4661 41.5698 42.6036L40.0551 41.2975C38.9587 42.3525 38.2169 43.5038 37.9003 44.7529L39.9373 45.1727ZM41.5698 42.6036C42.5031 41.7055 43.4761 41.1532 44.4853 40.8909L43.9213 39.0592C42.4867 39.432 41.1991 40.1967 40.0551 41.2975L41.5698 42.6036ZM44.4853 40.8909C45.5043 40.6261 46.5427 40.637 47.6255 40.9383L48.2454 39.1161C46.7959 38.7128 45.3462 38.6889 43.9213 39.0592L44.4853 40.8909ZM47.6255 40.9383C48.7091 41.2398 49.7878 41.8299 50.8581 42.7528L52.2993 41.3661C51.0443 40.284 49.6942 39.5193 48.2454 39.1161L47.6255 40.9383ZM50.8581 42.7528C51.687 43.4676 52.2795 44.1972 52.6633 44.9371L54.5544 44.116C54.0417 43.1277 53.2808 42.2125 52.2993 41.3661L50.8581 42.7528ZM52.6682 44.9465C53.0567 45.6748 53.2361 46.4093 53.2208 47.1603L55.3111 47.1861C55.3329 46.1202 55.0742 45.0903 54.5494 44.1066L52.6682 44.9465ZM53.2207 47.1689C53.2126 47.9329 53.0102 48.7209 52.5892 49.5403L54.4818 50.3408C55.0154 49.3025 55.3 48.2456 55.3113 47.1775L53.2207 47.1689ZM52.5847 49.5492C52.1744 50.3695 51.5326 51.2147 50.6316 52.0817L52.1462 53.3878C53.1705 52.4022 53.9598 51.3846 54.4864 50.3319L52.5847 49.5492ZM52.1095 52.0414L49.66 49.9292L48.2189 51.3159L50.6683 53.4281L52.1095 52.0414ZM49.6968 51.2756C50.3197 50.6762 50.8285 50.044 51.2106 49.3772L49.3583 48.5023C49.0786 48.9904 48.6908 49.4801 48.1821 49.9695L49.6968 51.2756ZM51.2106 49.3772C51.5963 48.704 51.8377 48.0084 51.9145 47.2947L49.8338 47.1183C49.7861 47.5607 49.6343 48.0206 49.3583 48.5023L51.2106 49.3772ZM51.9132 47.3057C52.0013 46.5749 51.9069 45.8641 51.6233 45.1873L49.6696 45.8748C49.8309 46.2596 49.8882 46.6658 49.835 47.1072L51.9132 47.3057ZM51.6296 45.203C51.352 44.5038 50.8778 43.8843 50.2473 43.3406L48.8061 44.7273C49.2406 45.102 49.5128 45.4805 49.6632 45.8592L51.6296 45.203ZM50.2473 43.3406C49.42 42.6272 48.5369 42.1124 47.5931 41.8738L47.0248 43.7097C47.547 43.8417 48.1424 44.155 48.8061 44.7273L50.2473 43.3406ZM47.5855 41.8719C46.6593 41.6447 45.7342 41.6767 44.8428 41.9811L45.5679 43.7645C46.033 43.6056 46.5104 43.5835 47.0324 43.7116L47.5855 41.8719ZM44.8502 41.9786C44.0017 42.2618 43.243 42.7477 42.5692 43.3961L44.0838 44.7022C44.5754 44.2292 45.0692 43.9309 45.5604 43.767L44.8502 41.9786ZM42.5692 43.3961C41.9296 44.0115 41.4721 44.7021 41.2449 45.4686L43.2631 45.9566C43.385 45.5452 43.6425 45.1268 44.0838 44.7022L42.5692 43.3961ZM41.2449 45.4686C41.01 46.2609 41.0597 47.1246 41.3103 48.0224L43.3367 47.544C43.1454 46.859 43.1488 46.3423 43.2631 45.9566L41.2449 45.4686ZM41.3153 48.0396C41.5817 48.9241 42.0706 49.9593 42.7521 51.1322L44.6009 50.2342C43.9548 49.1222 43.5417 48.224 43.3317 47.5267L41.3153 48.0396ZM42.7604 51.1462C43.5281 52.4155 44.0523 53.5735 44.3513 54.6231L46.3751 54.1357C46.0224 52.8978 45.4221 51.5917 44.5926 50.2202L42.7604 51.1462ZM44.3534 54.6305C44.6485 55.6329 44.6692 56.5479 44.4476 57.3928L46.481 57.8265C46.7932 56.6358 46.7465 55.3972 46.373 54.1283L44.3534 54.6305ZM44.4463 57.3978C44.2406 58.2016 43.7241 59.0439 42.812 59.9216L44.3266 61.2277C45.4243 60.1715 46.1711 59.0371 46.4823 57.8215L44.4463 57.3978ZM42.812 59.9216C41.8322 60.8644 40.8252 61.4129 39.7948 61.6401L40.2769 63.4915C41.7791 63.1602 43.1278 62.3812 44.3266 61.2277L42.812 59.9216ZM39.8001 61.639C38.7561 61.864 37.6727 61.8044 36.5248 61.4307L35.8125 63.225C37.3052 63.7109 38.8 63.8099 40.2717 63.4926L39.8001 61.639ZM36.5248 61.4307C35.3677 61.054 34.202 60.3803 33.0318 59.3712L31.5906 60.7579C32.9232 61.907 34.3291 62.7421 35.8125 63.225L36.5248 61.4307ZM33.0318 59.3712C32.3467 58.7804 31.7573 58.1115 31.2628 57.3619L29.4694 58.3495C30.0597 59.2441 30.767 60.0477 31.5906 60.7579L33.0318 59.3712ZM31.2628 57.3619C30.7893 56.6443 30.4876 55.8831 30.3529 55.0724L28.2857 55.3671C28.4619 56.4269 28.8581 57.423 29.4694 58.3495L31.2628 57.3619ZM30.3543 55.0811C30.2326 54.3004 30.3212 53.4765 30.6461 52.597L28.665 51.9976C28.2474 53.1278 28.1119 54.2523 28.2843 55.3583L30.3543 55.0811ZM30.6446 52.601C30.9626 51.7524 31.5869 50.8491 32.5783 49.8951L31.0637 48.589C29.9271 49.6826 29.1077 50.8161 28.6664 51.9936L30.6446 52.601ZM31.1004 49.9354L33.5765 52.0706L35.0177 50.6839L32.5416 48.5487L31.1004 49.9354ZM33.5398 50.7242C32.7603 51.4742 32.1752 52.2465 31.8507 53.0441L33.8105 53.6984C34.0057 53.2186 34.3983 52.6616 35.0544 52.0303L33.5398 50.7242ZM31.843 53.0636C31.5548 53.8218 31.4486 54.5824 31.5583 55.3321L33.6307 55.0708C33.5701 54.6566 33.6212 54.1972 33.8182 53.6788L31.843 53.0636ZM31.5605 55.3462C31.6735 56.0384 31.9228 56.6864 32.3091 57.2825L34.1109 56.3079C33.8638 55.9266 33.7029 55.512 33.6285 55.0566L31.5605 55.3462ZM32.322 57.3019C32.7003 57.855 33.1401 58.3501 33.6426 58.7835L35.0838 57.3968C34.7166 57.0801 34.3876 56.712 34.0979 56.2885L32.322 57.3019ZM33.6426 58.7835C34.5158 59.5364 35.4321 60.0917 36.3963 60.3944L37.0864 58.593C36.4772 58.4018 35.8081 58.0213 35.0838 57.3968L33.6426 58.7835ZM36.4034 60.3966C37.3786 60.6956 38.3601 60.7481 39.32 60.5172L38.796 58.6755C38.275 58.8008 37.712 58.7848 37.0792 58.5908L36.4034 60.3966ZM39.32 60.5172C40.2744 60.2876 41.11 59.8051 41.8252 59.1169L40.3106 57.8108C39.8268 58.2763 39.3224 58.5488 38.796 58.6755L39.32 60.5172Z" fill="#0C29B0"/>
<defs>
<filter id="filter0_d_537_19174" x="0.5" y="15.3021" width="87.6812" height="80.1985" filterUnits="userSpaceOnUse" color-interpolation-filters="sRGB">
<feFlood flood-opacity="0" result="BackgroundImageFix"/>
<feColorMatrix in="SourceAlpha" type="matrix" values="0 0 0 0 0 0 0 0 0 0 0 0 0 0 0 0 0 0 127 0" result="hardAlpha"/>
<feOffset dx="2" dy="2"/>
<feGaussianBlur stdDeviation="2"/>
<feComposite in2="hardAlpha" operator="out"/>
<feColorMatrix type="matrix" values="0 0 0 0 0 0 0 0 0 0 0 0 0 0 0 0 0 0 0.1 0"/>
<feBlend mode="normal" in2="BackgroundImageFix" result="effect1_dropShadow_537_19174"/>
<feBlend mode="normal" in="SourceGraphic" in2="effect1_dropShadow_537_19174" result="shape"/>
</filter>
<filter id="filter1_d_537_19174" x="66.25" y="-0.000244141" width="33.751" height="44.085" filterUnits="userSpaceOnUse" color-interpolation-filters="sRGB">
<feFlood flood-opacity="0" result="BackgroundImageFix"/>
<feColorMatrix in="SourceAlpha" type="matrix" values="0 0 0 0 0 0 0 0 0 0 0 0 0 0 0 0 0 0 127 0" result="hardAlpha"/>
<feOffset dx="2" dy="2"/>
<feGaussianBlur stdDeviation="2"/>
<feComposite in2="hardAlpha" operator="out"/>
<feColorMatrix type="matrix" values="0 0 0 0 0 0 0 0 0 0 0 0 0 0 0 0 0 0 0.1 0"/>
<feBlend mode="normal" in2="BackgroundImageFix" result="effect1_dropShadow_537_19174"/>
<feBlend mode="normal" in="SourceGraphic" in2="effect1_dropShadow_537_19174" result="shape"/>
</filter>
</defs>
</svg>
