<svg width="90" height="86" viewBox="0 0 90 86" fill="none" xmlns="http://www.w3.org/2000/svg">
<ellipse cx="47.6784" cy="9.1375" rx="9.10714" ry="9.1375" fill="#091E80"/>
<path d="M26.7856 35.1854V59.125H67.4999V35.1854C50.3571 8.45287 33.2142 24.0468 26.7856 35.1854Z" fill="#091E80"/>
<path d="M56.7856 39.1753V59.125H89.9999V44.9328C89.9999 41.1709 89.0375 37.381 86.6427 34.4797C73.83 18.9569 61.6098 30.637 56.7856 39.1753Z" fill="#091E80"/>
<ellipse cx="16.6071" cy="16.125" rx="9.10714" ry="8.6" fill="#091E80"/>
<ellipse cx="73.9284" cy="17.7375" rx="8.57143" ry="8.0625" fill="#091E80"/>
<path d="M0 43.7648V59.125H34.2857V38.5103C21.9695 18.8711 9.65339 25.761 2.94005 34.1642C0.79006 36.8554 0 40.3203 0 43.7648Z" fill="#091E80"/>
<path d="M46.2047 35.475C41.9049 43.559 26.4957 41.3696 22.0167 39.2644C17.7168 71.6004 38.1425 85.5789 46.2047 86C65.5541 82.9685 71.7337 51.8956 69.0463 39.2644C61.5216 45.3274 48.4442 39.2644 46.2047 35.475Z" fill="#091E80"/>
<path d="M46.0857 39.775C42.5503 46.483 29.8805 44.6663 26.1978 42.9194C22.6623 69.7514 39.4568 81.3507 46.0857 81.7C61.9952 79.1845 67.0763 53.4007 64.8666 42.9194C58.6796 47.9504 47.9271 42.9194 46.0857 39.775Z" fill="#E6E6E6"/>
<line y1="-1.5" x2="9.11144" y2="-1.5" transform="matrix(0.807462 0.58992 -0.587359 0.809326 36.4287 63.425)" stroke="#091E80" stroke-width="3"/>
<line y1="-1.5" x2="17.5695" y2="-1.5" transform="matrix(0.678904 -0.734227 0.73197 0.681337 43.7861 68.8)" stroke="#091E80" stroke-width="3"/>
</svg>
